<svg width="89" height="89" viewBox="0 0 89 89" fill="none" xmlns="http://www.w3.org/2000/svg">
<rect width="89" height="89" fill="#131313"/>
<path d="M39 49.5L41 68.5L29 60.5V54.5L25 51.5L27.5 30L44 24V51.5L43 51L42.5 44.5L32 38.5L31.5 45L39 49.5Z" fill="white"/>
<path d="M49 49.5L47 68.5L59 60.5V54.5L63 51.5L60.5 30L44 24V51.5L45 51L45.5 44.5L56 38.5L56.5 45L49 49.5Z" fill="white"/>
<path d="M44 23L30.5 28L34 23L44 18V23Z" fill="#FF5F3F"/>
<path d="M44 23L57.5 28L54 23L44 18V23Z" fill="#FF5F3F"/>
<path d="M44 17L41 18.5L41.5309 16L44 12V17Z" fill="white"/>
<path d="M44 17L47 18.5L46.4691 16L44 12V17Z" fill="white"/>
</svg>
